<svg fill="none" xmlns="http://www.w3.org/2000/svg" xmlns:xlink="http://www.w3.org/1999/xlink" viewBox="0 0 616 277"><g clip-path="url(#a)"><g opacity=".8" fill="#6D6DA3"><path d="M-63.8192 170.866 33.1407 36.6505l2.8545 5.3455-94.2348 131.844-5.5796-2.974Z"/><path d="m31.7543 38.449 44.5826-63.1946 3.1498 10.6626a40.63449 40.63449 0 0 0 3.1259 7.62917l.9083 1.70087a32.10613 32.10613 0 0 0 9.262 10.71352A32.1046 32.1046 0 0 0 105.382 11.573l.593.1219c2.827.5806 5.743.7853 8.623.6117 5.354-.3226 10.752.6779 15.626 2.9183 5.104 2.3463 9.514 5.9716 12.805 10.5242l.712.9858c2.657 4.9747 4.772 10.2203 6.308 15.6465l1.632 5.761c1.341 8.0793 3.993 15.8852 7.85 23.1094l2.548 4.7708.325.609c3.357 6.2853 8.805 11.1994 15.401 13.8922l1.111.3792c6.549 2.2373 13.383 3.5364 20.296 3.8586a73.34408 73.34408 0 0 1 16.699 2.7321l2.992.8528 2.071.754c4.372 1.5915 8.464 3.8635 12.127 6.7315l1.955 1.532c3.548 2.779 6.478 6.268 8.601 10.243 1.648 3.088 2.786 6.422 3.368 9.873l.433 2.567c.351 2.083 1.038 4.096 2.033 5.96 1.391 2.604 3.353 4.859 5.739 6.597l1.23.896c1.115.812 2.292 1.535 3.522 2.161l9.122 4.651c-4.112 2.196-8.563 3.685-13.168 4.407l-6.395 1.002-11.981-.014-11.966-1.854-9.827-3.453 3.616 6.77 8.419 10.16 10.542 10.4 9.226 6.065-1.852.989c-4.388 2.343-9.297 3.538-14.27 3.473-3.296-.042-6.561-.637-9.659-1.76l-3.685-1.335c-2.252-.816-4.415-1.86-6.454-3.116-5.295-3.261-9.628-7.87-12.557-13.355l-.856-1.602-1.248-2.337c-2.829-5.297-6.492-10.105-10.849-14.237l-1.045-.991a43.01455 43.01455 0 0 0-7.644-5.781c-4.506-2.677-9.462-4.51-14.626-5.407l-3.189-.555-12.552-1.082-11.359-2.281c-3.222-.647-6.364-1.639-9.373-2.96l-1.506-.661a28.3182 28.3182 0 0 1-4.637-2.58c-3.733-2.564-6.795-5.987-8.928-9.982l-.75-1.404-2.177-4.077c-2.204-4.127-3.533-8.664-3.905-13.3275l-.116-1.45c-.13-1.6357-.072-3.281.173-4.9034.69-4.5606-.112-9.2219-2.284-13.2906l-.841-1.5735-4.567-8.5527-.6658-1.2468a19.165 19.165 0 0 0-7.937-7.9093 19.1635 19.1635 0 0 0-8.2368-2.2141l-6.8337-.2612-12.5597-.1628-9.0659 1.0534a12.2897 12.2897 0 0 1-7.637-1.6073 12.28986 12.28986 0 0 1-4.6219-4.811L31.7543 38.449Z"/></g><g opacity=".8"><path d="m-72.1159 336.073 26.2446-150.585 4.4304 3.104-24.9557 147.489-5.7193-.008Z" fill="#6D6DA3"/><path d="m-46.2941 187.543 11.4844-70.441 6.762 7.287a34.98062 34.98062 0 0 0 5.5583 4.845l1.2878.902c3.5667 2.499 7.6636 4.139 11.96969 4.79 4.07958.618 8.24492.333 12.20251-.834l.7071-.208c2.54261-.75 4.97771-1.825 7.2448-3.199l.3228-.195c4.0785-2.471 8.6991-3.908 13.4596-4.185 5.1746-.302 10.3365.777 14.9573 3.125l.7377.375a67.51842 67.51842 0 0 1 11.289 9.958l3.6067 3.979c4.2698 5.969 9.5219 11.171 15.5327 15.382l3.9144 2.743.3646.255c5.2897 3.707 11.7371 5.385 18.1626 4.728l.9405-.153c6.2966-1.019 12.4186-2.917 18.1876-5.637 4.708-2.219 9.654-3.892 14.742-4.987l2.714-.584 2.136-.302c4.09-.579 8.246-.498 12.31.241l2.317.422c3.953.718 7.704 2.284 10.994 4.59 2.56 1.793 4.799 4.005 6.624 6.542l1.378 1.915c1.102 1.533 2.454 2.868 4 3.952 2.154 1.509 4.633 2.492 7.236 2.869l1.414.205c1.213.176 2.438.253 3.664.232l9.302-.159c-2.49 3.553-5.537 6.681-9.025 9.262l-4.797 3.55-9.773 5.15-10.485 3.652-9.371 1.433 5.612 3.932 10.861 4.61 12.687 3.891 9.908.943-1.2 1.713c-2.606 3.719-6.082 6.746-10.124 8.817a27.88213 27.88213 0 0 1-8.763 2.785l-3.48.498c-2.103.301-4.232.384-6.352.246-5.628-.365-11.048-2.27-15.668-5.507l-1.207-.846-1.874-1.313c-4.43-3.104-9.348-5.444-14.551-6.925l-1.113-.317a38.4046 38.4046 0 0 0-8.654-1.422c-4.687-.228-9.376.405-13.835 1.868l-2.9752.976-10.6597 4.529-10.229 3.065c-2.8342.849-5.7518 1.391-8.7021 1.614l-1.5731.119c-1.5693.119-3.1463.087-4.7095-.094a24.68755 24.68755 0 0 1-11.315-4.303l-1.0894-.763-3.3113-2.32c-3.4628-2.427-6.3665-5.566-8.5162-9.206l-.6457-1.094c-.7488-1.268-1.3463-2.62-1.7805-4.027-1.2342-4.001-3.7656-7.477-7.1947-9.88l-1.2075-.846-7.0887-4.967-.907-.635c-2.8696-2.011-6.2898-3.087-9.79377-3.082-2.54918.003-5.06503.579-7.36188 1.685l-5.81449 2.8-10.30396 5.278-7.1127 4.852c-1.9541 1.333-4.2869 1.998-6.6503 1.897-2.0896-.09-4.1101-.775-5.8231-1.975l-11.5543-8.096Z" fill="#FFF4B4"/></g><g opacity=".8" fill="#DCA0E8"><path d="m668.136 295.394-85.959-108.693-2.113 3.575 83.606 106.66 4.466-1.542Z"/><path d="m583.401 188.167-39.591-51.058-2.116 7.409c-.525 1.841-1.284 3.607-2.258 5.256l-.281.475c-1.898 3.211-4.637 5.842-7.922 7.608-2.697 1.45-5.686 2.276-8.745 2.416l-1.691.078c-2.162.1-4.329-.053-6.456-.454l-1.819-.344c-3.535-.667-7.176-.514-10.643.447l-1.875.52c-3.31.917-6.269 2.807-8.494 5.423-.635.746-1.205 1.546-1.703 2.389l-.397.671c-1.203 2.036-2.125 4.224-2.743 6.506l-1.694 6.266c-.74 5.717-2.634 11.223-5.567 16.186l-1.753 2.966c-2.609 4.414-6.914 7.563-11.911 8.711l-.402.093-.354.06c-5.664.957-11.429 1.166-17.147.622-4.622-.439-9.277-.387-13.888.156l-2.139.252-2.435.461c-3.025.573-5.931 1.656-8.593 3.203l-2.097 1.219c-2.644 1.537-4.85 3.726-6.406 6.359-1.223 2.069-2.016 4.363-2.331 6.745l-.26 1.96c-.191 1.442-.671 2.83-1.411 4.082-1.017 1.721-2.491 3.126-4.258 4.06l-1.252.662c-.809.428-1.654.785-2.525 1.067l-7.482 2.421c3.497 2.067 7.256 3.655 11.175 4.722l5.195 1.415 9.876 1.334 9.781-.008 7.946-1.415-2.676 4.529-6.484 6.46-8.224 6.396-7.333 3.385 2.12 1.253c3.381 1.998 7.136 3.28 11.032 3.766 2.942.367 5.923.275 8.837-.273l2.77-.52c1.549-.291 3.062-.747 4.514-1.36 4.352-1.839 7.998-5.027 10.402-9.095l.243-.411.716-1.211c2.224-3.763 5.179-7.042 8.691-9.643l.265-.197c2.063-1.528 4.313-2.786 6.695-3.744 3.409-1.371 7.039-2.107 10.712-2.172l3.426-.061 10.299.62 9.623-.403c2.387-.1 4.756-.451 7.069-1.048l1.632-.422c1.134-.293 2.237-.7 3.289-1.215 3.046-1.49 5.588-3.84 7.313-6.759l.314-.531 1.388-2.349c1.77-2.993 2.75-6.387 2.851-9.862l.024-.857c.034-1.162-.079-2.323-.337-3.457-.781-3.437-.218-7.043 1.576-10.077l.306-.519 3.381-5.72.093-.158c1.577-2.667 4.054-4.684 6.986-5.686 1.777-.608 3.664-.823 5.532-.631l6.382.654 10.347 1.291 8.3 1.969c1.7.404 3.483.276 5.108-.366 1.764-.697 3.246-1.962 4.211-3.595l5.273-8.922Z"/></g><g opacity=".7" fill="#10636B"><path d="M648.364 227.042 601.097 75.269l-4.548 5.1466 45.462 148.9564 6.353-2.33Z"/><path d="m601.814 77.3144-21.23-71.31824-6.643 10.61554c-1.642 2.6246-3.498 5.1095-5.548 7.4293l-1.984 2.2442a40.22777 40.22777 0 0 1-11.562 9.0404l-.96.4998a34.94729 34.94729 0 0 1-13.473 3.8499l-.689.0528c-2.832.217-5.681.0319-8.462-.5498a30.09662 30.09662 0 0 0-14.992.6864l-1.658.5085a36.831 36.831 0 0 0-13.966 7.954l-2.088 1.8973-.596.6746c-3.84 4.3456-7.296 9.017-10.326 13.9614l-3.949 6.4422-.168.3408c-3.926 7.9685-8.895 15.3786-14.777 22.0345l-4.48 5.0683-1.132 1.2807c-4.995 5.652-11.556 9.694-18.851 11.614l-1.863.381a69.58179 69.58179 0 0 1-20.024 1.143c-5.534-.486-11.107-.307-16.599.532l-3.522.538-1.425.32a56.96812 56.96812 0 0 0-15.079 5.726l-1.812 1.001c-4.498 2.487-8.537 5.727-11.942 9.578-2.623 2.969-4.844 6.272-6.602 9.823l-1.227 2.478c-1.06 2.14-2.398 4.13-3.98 5.919a27.1048 27.1048 0 0 1-7.917 6.157l-3.331 1.712-12.402 4.317c3.181 2.811 6.903 4.941 10.937 6.261l5.959 1.949 11.477 1.588 12.087-.317 10.583-2.258-5.761 6.519-11.512 9.381-13.626 9.346-10.894 5.039.788.696c3.805 3.363 8.537 5.5 13.576 6.13 2.877.36 5.793.221 8.622-.41l4.323-.963c2.728-.609 5.393-1.472 7.96-2.579 6.027-2.6 11.406-6.498 15.753-11.417l1.89-2.138 2.258-2.556c4.338-4.908 9.302-9.226 14.764-12.842l1.945-1.288c2.699-1.787 5.563-3.311 8.553-4.551 5.433-2.253 11.217-3.541 17.093-3.807l2.301-.104 12.386.558 11.23-.809c3.585-.258 7.134-.892 10.587-1.892l1.208-.35c1.979-.572 3.906-1.312 5.76-2.209 4.353-2.108 8.244-5.06 11.447-8.684l1.516-1.715 3.765-4.26c3.328-3.766 5.995-8.068 7.887-12.724l.682-1.679c.683-1.681 1.193-3.427 1.523-5.211.882-4.775 3.047-9.22 6.263-12.858l1.757-1.988 7.277-8.235 1.626-1.8395a22.76382 22.76382 0 0 1 9.27-6.315 22.75977 22.75977 0 0 1 9.982-1.2659l5.74.5571 9.897 1.2379c1.455.182 2.894.4695 4.308.8603l5.276 1.4592c3.032.8384 6.257.6474 9.168-.5433 2.021-.8264 3.825-2.1074 5.271-3.7435l12.357-13.9819Z"/></g><rect x="205" y="50" width="207" height="205" rx="100" fill="url(#b)"/></g><defs><clipPath id="a"><rect width="616" height="277" rx="8" fill="#fff"/></clipPath><pattern id="b" patternContentUnits="objectBoundingBox" width="1" height="1"><use xlink:href="#c" transform="matrix(.0072 0 0 .00726 0 -.00851)"/></pattern></defs></svg>