<svg height="512pt" viewBox="-28 0 512 512.032" width="512pt" xmlns="http://www.w3.org/2000/svg"><path d="m455.902344 323.472656c-.167969-2.480468-1.46875-4.738281-3.527344-6.121094-19.222656-12.855468-43.589844-15.34375-65.824219-7.273437-4.207031-23.0625-18.519531-43.167969-39.054687-53.269531-2.214844-1.097656-4.839844-1.097656-7.0625 0-6.839844 3.367187-12.921875 7.925781-18.265625 13.253906-21.089844-32.125-51.0625-57.710938-84.871094-72.34375 1.625-2.886719 2.625-6.167969 2.625-9.71875 0-4.519531-1.5625-8.648438-4.105469-12 2.535156-3.351562 4.105469-7.480469 4.105469-12s-1.5625-8.65625-4.113281-12.007812c2.542968-3.351563 4.113281-7.488282 4.113281-12.007813s-1.5625-8.648437-4.105469-12c2.535156-3.351563 4.105469-7.480469 4.105469-12 0-7.527344-4.234375-14.03125-10.402344-17.441406 7.738281-11.679688 18.375-30.015625 18.375-42.621094 0-35.539063-26.214843-55.921875-71.933593-55.921875-45.480469 0-71.632813 20.175781-71.914063 55.367188-.007813.191406-.109375.359374-.109375.554687 0 12.613281 10.65625 30.964844 18.390625 42.644531-6.144531 3.417969-10.359375 9.898438-10.359375 17.417969 0 4.519531 1.558594 8.648437 4.101562 12-2.535156 3.351563-4.101562 7.480469-4.101562 12s1.558594 8.65625 4.109375 12.007813c-2.542969 3.351562-4.109375 7.488281-4.109375 12.007812s1.558594 8.648438 4.101562 12c-2.535156 3.351562-4.101562 7.480469-4.101562 12 0 3.679688 1.0625 7.078125 2.808594 10.039062-66.363282 28.984376-114.761719 97.703126-114.761719 165.914063 0 85.703125 74.015625 147.902344 176 147.902344 50.242187 0 95.96875-15.648438 128.023437-43.136719 6.136719 18.480469 18.96875 33.898438 36.394532 42.488281 1.117187.546875 2.328125.824219 3.535156.824219s2.421875-.269531 3.527344-.824219c20.75-10.214843 35.078125-30.085937 39.199218-53.359375 8.410157 3 17.144532 4.648438 25.832032 4.648438 14.128906 0 28.046875-3.953125 39.824218-11.832032 2.074219-1.382812 3.375-3.640624 3.535157-6.121093 1.503906-22.832031-8.742188-45.277344-26.597657-60.453125 18.09375-15.203125 28.144532-37.539063 26.613282-60.617188zm-111.933594-50.402344c17.136719 10.144532 28 29.683594 28 50.914063 0 13.65625-4.335938 26.414063-12.234375 36.726563-4.46875-3.023438-9.855469-4.789063-15.644531-4.789063-5.851563 0-11.273438 1.8125-15.777344 4.894531-7.878906-10.320312-12.34375-23.34375-12.34375-36.832031 0-21.222656 10.871094-40.777344 28-50.914063zm12.121094 110.851563c0 6.613281-5.386719 12-12 12-6.617188 0-12-5.386719-12-12 0-6.617187 5.382812-12 12-12 6.613281 0 12 5.382813 12 12zm-236.113282-327.746094c0-.085937.046876-.167969.046876-.246093 0-26.496094 18.824218-39.921876 55.9375-39.921876 37.109374 0 55.933593 13.433594 55.933593 39.921876 0 8.496093-11.054687 27.429687-20.0625 40.0625h-71.832031c-8.929688-12.527344-19.839844-31.199219-20.023438-39.816407zm99.945313 111.824219h-87.953125c-2.199219 0-4-1.800781-4-4s1.800781-4 4-4c.03125 0 .046875-.015625.078125-.015625h87.800781c.03125 0 .046875.015625.082032.015625 2.199218 0 4 1.800781 4 4s-1.800782 4-4.007813 4zm4 20c0 2.199219-1.800781 4-4 4h-87.203125c-.152344-.015625-.292969.007812-.445312 0h-.304688c-2.199219 0-4-1.800781-4-4s1.800781-4 4-4h87.953125c2.207031 0 4 1.800781 4 4zm-4-44.015625h-87.953125c-2.199219 0-4-1.800781-4-4s1.800781-4 4-4h87.953125c2.199219 0 4 1.800781 4 4s-1.792969 4-4 4zm0-24h-87.953125c-2.199219 0-4-1.800781-4-4s1.800781-4 4-4h87.953125c2.199219 0 4 1.800781 4 4s-1.792969 4-4 4zm-43.90625 375.871094c-94.199219 0-160-54.238281-160-131.902344 0-66.167969 50.320313-132.9375 117.242187-155.953125h86.46875c37.074219 12.769531 70.21875 40.015625 91.90625 75.230469-5.03125 8.089843-8.496093 17.203125-10.25 26.832031-22.222656-8.054688-46.582031-5.566406-65.808593 7.28125-2.0625 1.382812-3.367188 3.640625-3.527344 6.121094-1.519531 23.078125 8.519531 45.421875 26.601563 60.625-17.855469 15.175781-28.113282 37.621094-26.601563 60.453125.167969 2.480469 1.472656 4.738281 3.539063 6.121093 11.773437 7.871094 25.695312 11.832032 39.828124 11.832032 4.089844 0 8.171876-.449219 12.242188-1.113282-28.792969 22.015626-68.273438 34.472657-111.640625 34.472657zm136.136719-130.222657c-13.527344-.632812-27.28125 2.464844-39.59375 8.960938-15.3125-11.097656-24.503906-28.105469-24.65625-46.058594 15.609375-8.847656 34.9375-9.390625 52.210937-1.664062.519531 13.921875 4.726563 27.359375 12.039063 38.761718zm-64.25 73.839844c.210937-19.898437 11.699218-39.082031 30.082031-49.695312 11.757813-6.785156 25.359375-9.433594 38.289063-7.714844-.042969.625-.183594 1.21875-.183594 1.859375 0 11.015625 6.453125 20.476563 15.726562 25.039063-4.984375 12.070312-14.074218 22.519531-25.824218 29.3125-18.375 10.589843-40.753907 10.957031-58.089844 1.199218zm96.066406 55.472656c-15.472656-9.113281-25.601562-25.570312-27.554688-44.378906 11.792969-7.414062 21.339844-17.78125 27.5625-29.8125 6.207032 12.03125 15.757813 22.390625 27.542969 29.789063-1.945312 18.832031-12.070312 35.296875-27.550781 44.402343zm96.070312-55.472656c-17.335937 9.773438-39.695312 9.414063-58.085937-1.207031-11.714844-6.761719-20.785156-17.167969-25.777344-29.195313 9.375-4.527343 15.902344-14.054687 15.902344-25.140624 0-.65625-.148437-1.265626-.191406-1.914063 12.929687-1.710937 26.203125.914063 38.066406 7.769531 18.390625 10.597656 29.878906 29.78125 30.085937 49.6875zm-24.648437-64.878906c-12.429687-6.59375-25.992187-9.683594-39.503906-9.019531 7.335937-11.359375 11.441406-24.636719 11.9375-38.703125 17.28125-7.726563 36.609375-7.183594 52.222656 1.664062-.144531 17.960938-9.335937 34.96875-24.65625 46.058594zm0 0"/></svg>